<svg xmlns="http://www.w3.org/2000/svg" xmlns:xlink="http://www.w3.org/1999/xlink" width="50" height="50" viewBox="0 0 50 50">
  <defs>
    <clipPath id="clip-instagram_1">
      <rect width="50" height="50"/>
    </clipPath>
  </defs>
  <g id="instagram_1" data-name="instagram – 1" clip-path="url(#clip-instagram_1)">
    <rect width="50" height="50" fill="#fff"/>
    <g id="Group_29" data-name="Group 29">
      <path id="Path_75" data-name="Path 75" d="M23.023.079A25.046,25.046,0,0,1,48.488,33.55C41.976,51.581,18.368,55.708,5.893,41.1-7.262,25.7,2.988,1.647,23.023.079m.78,10.539c-4.813.037-10.653-.275-12.506,5.256-1,2.99-.833,12.432-.527,15.862.8,8.994,9.94,7.629,16.481,7.51,4.493-.082,9.269.373,11.327-4.678,1.148-2.82.956-12.729.691-16.109-.682-8.7-8.871-7.892-15.466-7.841" transform="translate(0 0.046)" fill="#1a1311"/>
      <path id="Path_76" data-name="Path 76" d="M28.578,23.388a83.151,83.151,0,0,1,12.8-.031c2.257.226,4.2,1.208,4.947,3.445.782,2.327.668,11.416.451,14.2-.273,3.5-2.038,5.434-5.572,5.748a92.215,92.215,0,0,1-12.1.01c-3.548-.276-5.429-1.994-5.748-5.573a84.759,84.759,0,0,1,.051-12.63c.355-3.132,2.044-4.818,5.172-5.172M42.23,25.714c-2.129.469-1.212,3.692.693,3.438a1.755,1.755,0,1,0-.693-3.438m-7.992,1.969c-10.725,1.162-7.022,18.152,3.494,14.228,7.942-2.964,5.06-15.155-3.494-14.228" transform="translate(-10.048 -9.994)" fill="#1a1311"/>
      <path id="Path_77" data-name="Path 77" d="M39.386,35.915c7.71-1.313,8.035,10.171.343,9.323-4.985-.549-5.059-8.52-.343-9.323" transform="translate(-15.594 -15.5)" fill="#1a1311"/>
    </g>
  </g>
</svg>
