<svg xmlns="http://www.w3.org/2000/svg" xmlns:xlink="http://www.w3.org/1999/xlink" width="50" height="50" viewBox="0 0 50 50">
  <defs>
    <linearGradient id="linear-gradient" x1="0.861" y1="0.9" x2="0.126" gradientUnits="objectBoundingBox">
      <stop offset="0" stop-color="#c43299"/>
      <stop offset="0.33" stop-color="#f64643"/>
      <stop offset="0.69" stop-color="#ff873f"/>
      <stop offset="1" stop-color="#ffd14a"/>
    </linearGradient>
    <clipPath id="clip-instagram_2">
      <rect width="50" height="50"/>
    </clipPath>
  </defs>
  <g id="instagram_2" data-name="instagram – 2" clip-path="url(#clip-instagram_2)">
    <rect width="50" height="50" fill="#fff"/>
    <g id="Group_41" data-name="Group 41">
      <path id="Path_78" data-name="Path 78" d="M71.815,55.146c-2.005-.044-4.032-.008-6.037.045-6.531.175-10.508.078-10.905,7.845-.195,3.807-.195,8.747,0,12.554.315,6.17,2.529,7.436,8.3,7.751,3.54.193,7.24.275,10.8.139,5.681-.217,8.725-1.223,9.1-7.492a125.473,125.473,0,0,0,0-13.349C82.612,55.11,78,55.282,71.815,55.146m-2.839,23.08c-11.44,0-11.763-17.489-.225-17.781,11.825-.3,11.926,17.781.225,17.781m8.916-16.072c-2.221-.269-2.295-3.578-.389-4.006,3.51-.788,3.586,4.393.389,4.006" transform="translate(-43.982 -44.302)" fill="url(#linear-gradient)"/>
      <path id="Path_79" data-name="Path 79" d="M37.83,0H12.171A12.171,12.171,0,0,0,0,12.17V37.829A12.171,12.171,0,0,0,12.171,50H37.83A12.171,12.171,0,0,0,50,37.829V12.17A12.171,12.171,0,0,0,37.83,0M42.2,31.557c-.429,8.129-4.625,10.449-12.209,10.722-3.177.115-6.817.115-9.994,0C12.5,42.008,8.215,39.79,7.788,31.692c-.211-4-.2-9.22,0-13.228C8.188,10.48,12.14,8.1,19.638,7.786a104.512,104.512,0,0,1,12.91.1c6.166.573,9.28,4.042,9.646,10.183A134.5,134.5,0,0,1,42.2,31.557" fill="url(#linear-gradient)"/>
      <path id="Path_80" data-name="Path 80" d="M103.957,97.994c-8.2.3-6.653,13.318,1.622,11.344,6.584-1.57,5.247-11.6-1.622-11.344" transform="translate(-79.187 -78.75)" fill="url(#linear-gradient)"/>
    </g>
  </g>
</svg>
