<svg xmlns="http://www.w3.org/2000/svg" width="200.233" height="200.047" viewBox="0 0 200.233 200.047">
  <g id="Group_141" data-name="Group 141" transform="translate(0 -0.047)">
    <path id="Path_75" data-name="Path 75" d="M92.2.317c72.4-5.663,126.7,65.583,101.976,134.038C168.1,206.564,73.555,223.091,23.6,164.607-29.085,102.932,11.964,6.594,92.2.317m3.123,42.207c-19.273.15-42.663-1.1-50.082,21.047-4.009,11.974-3.336,49.787-2.112,63.524,3.209,36.016,39.807,30.551,66,30.075,17.992-.329,37.118,1.5,45.359-18.736,4.6-11.292,3.83-50.977,2.769-64.509-2.731-34.827-35.527-31.6-61.935-31.4" transform="translate(0 0.046)" fill="#1a1311"/>
    <path id="Path_76" data-name="Path 76" d="M44.9,24.175c12.307-1.4,38.881-1.36,51.273-.122,9.037.9,16.8,4.838,19.812,13.8,3.132,9.318,2.676,45.717,1.806,56.877-1.094,14.024-8.16,21.763-22.316,23.021-12.7,1.126-35.695,1.036-48.475.039C32.8,116.682,25.262,109.8,23.986,95.469c-1.113-12.518-1.2-38.219.2-50.58C25.613,32.347,32.377,25.6,44.9,24.175m54.67,9.316c-8.527,1.879-4.854,14.784,2.774,13.766,9.47-1.264,6.993-15.919-2.774-13.766M67.569,41.377c-42.95,4.654-28.121,72.694,13.99,56.977,31.806-11.869,20.265-60.689-13.99-56.977" transform="translate(29.301 29.324)" fill="#1a1311"/>
    <path id="Path_77" data-name="Path 77" d="M49.806,36.229c30.877-5.259,32.178,40.73,1.373,37.335-19.964-2.2-20.258-34.12-1.373-37.335" transform="translate(45.473 45.383)" fill="#1a1311"/>
  </g>
</svg>
