<svg xmlns="http://www.w3.org/2000/svg" xmlns:xlink="http://www.w3.org/1999/xlink" width="50" height="50" viewBox="0 0 50 50">
  <defs>
    <clipPath id="clip-Line_2">
      <rect width="50" height="50"/>
    </clipPath>
  </defs>
  <g id="Line_2" data-name="Line – 2" clip-path="url(#clip-Line_2)">
    <rect width="50" height="50" fill="#fff"/>
    <g id="Group_18" data-name="Group 18" transform="translate(0 -11)">
      <path id="Path_8" data-name="Path 8" d="M39.8,36.1c-.561-.011-.9.374-.9,1.071q-.009,3.2,0,6.393c0,.724.3,1.1.861,1.109.582.012.894-.375.9-1.138.006-1.066,0-2.131,0-3.2s.008-2.131,0-3.2c-.007-.662-.324-1.031-.859-1.042" transform="translate(-18.852 -6.495)" fill="#1a1311"/>
      <path id="Union_1" data-name="Union 1" d="M-112-280a25,25,0,0,1,25-25,25,25,0,0,1,25,25,25,25,0,0,1-25,25A25,25,0,0,1-112-280Z" transform="translate(112 316)"/>
      <path id="Path_9" data-name="Path 9" d="M50.831,36.106c-.54-.031-.89.359-.9,1-.012.843,0,1.686,0,2.529v1.555c-.3-.4-.476-.619-.643-.846q-1.378-1.877-2.751-3.757a.9.9,0,0,0-1.687.56c.008,2.152,0,4.3,0,6.457,0,.044,0,.089,0,.133.036.6.374.963.9.934a.825.825,0,0,0,.856-.9c.011-1.3,0-2.6,0-3.907l.14-.047c.108.136.222.267.324.408Q48.53,42.2,49.98,44.192a.94.94,0,0,0,1.084.448.893.893,0,0,0,.635-.976c0-2.2,0-4.393,0-6.59a.853.853,0,0,0-.865-.969" transform="translate(-21.732 -6.494)" fill="#1a1311"/>
      <path id="Path_10" data-name="Path 10" d="M31.222,42.9c-.7-.006-1.408,0-2.189,0v-.8c0-1.643.006-3.287,0-4.93,0-.7-.344-1.081-.9-1.066-.534.014-.855.388-.857,1.048q-.01,3.232,0,6.463c0,.772.311,1.06,1.11,1.066.956.007,1.911,0,2.866,0,.746,0,1.175-.317,1.192-.864.018-.571-.422-.907-1.214-.914" transform="translate(-13.211 -6.495)" fill="#1a1311"/>
      <path id="Path_11" data-name="Path 11" d="M64.5,42.884c-.727-.011-1.453,0-2.2,0V41.288c.761,0,1.488.009,2.214,0,.695-.012,1.092-.342,1.106-.889.014-.584-.384-.922-1.12-.929s-1.451,0-2.206,0V37.855c.817,0,1.569.01,2.32,0,.651-.011,1.025-.344,1-.9a.851.851,0,0,0-.956-.88c-1.065-.013-2.131-.02-3.2,0a.893.893,0,0,0-1.008.984q-.027,3.3,0,6.591c0,.679.36,1,1.048,1.007,1,.011,2,.007,3,0,.73,0,1.1-.289,1.118-.851.022-.588-.361-.914-1.116-.926" transform="translate(-29.29 -6.476)" fill="#1a1311"/>
      <path id="Path_13" data-name="Path 13" d="M30.324,16.908c4.778.109,8.866,1.493,12.1,4.9a10.45,10.45,0,0,1,3.045,7.762,11.105,11.105,0,0,1-3.279,7.212,43.344,43.344,0,0,1-8.2,6.62c-.913.6-1.867,1.144-2.808,1.7a2.916,2.916,0,0,1-.791.376c-.346.08-.825.212-1.041.049-.2-.152-.183-.664-.164-1.012.031-.583.176-1.16.207-1.743.045-.868-.159-1.158-1.015-1.39-.714-.194-1.458-.28-2.178-.456a14.773,14.773,0,0,1-8.358-5.1,10.424,10.424,0,0,1,.571-13.968,15.585,15.585,0,0,1,9.743-4.791c.774-.1,1.559-.123,2.171-.169m.018,12.029.124-.041c.1.119.195.236.286.359q1.283,1.748,2.562,3.5a.829.829,0,0,0,.956.4.788.788,0,0,0,.56-.86c0-1.936,0-3.872,0-5.807a.752.752,0,0,0-.763-.854c-.476-.027-.784.317-.792.88-.011.743,0,1.486,0,2.229v1.37c-.267-.351-.42-.546-.567-.745q-1.213-1.654-2.425-3.311a.794.794,0,0,0-1.487.493c.007,1.9,0,3.793,0,5.69,0,.039,0,.078,0,.117.032.526.329.849.79.823a.726.726,0,0,0,.754-.8c.01-1.148,0-2.3,0-3.444m7.163-1.75c.72,0,1.383.008,2.044,0,.574-.009.9-.3.883-.789a.75.75,0,0,0-.842-.776c-.939-.011-1.878-.018-2.817,0a.787.787,0,0,0-.888.867q-.024,2.9,0,5.809c0,.6.317.881.924.888.88.009,1.761.006,2.641,0,.643,0,.967-.255.986-.75.02-.517-.318-.806-.983-.815-.64-.01-1.281,0-1.942,0v-1.4c.671,0,1.311.009,1.951,0,.612-.01.962-.3.974-.783.013-.516-.339-.812-.987-.819s-1.279,0-1.944,0ZM22.363,31.617v-.705c0-1.449,0-2.9,0-4.345,0-.615-.3-.953-.8-.939-.471.012-.753.342-.755.923q-.009,2.848,0,5.7c0,.68.274.934.978.939.842.006,1.684,0,2.526,0,.658,0,1.036-.28,1.051-.762.016-.5-.372-.8-1.07-.805-.62-.006-1.241,0-1.93,0m5.282-2.255c0-.939.007-1.878,0-2.817-.005-.584-.286-.908-.757-.918-.494-.01-.789.329-.791.944q-.008,2.817,0,5.634c0,.639.266.967.759.977.512.01.788-.33.791-1,.005-.939,0-1.878,0-2.817" transform="translate(-5.452 4.74)" fill="#fff"/>
    </g>
  </g>
</svg>
