<svg xmlns="http://www.w3.org/2000/svg" width="200" height="200" viewBox="0 0 200 200">
  <g id="Group_140" data-name="Group 140" transform="translate(0 -11)">
    <path id="Path_8" data-name="Path 8" d="M42.2,36.1c-2.052-.04-3.278,1.367-3.286,3.919q-.034,11.7,0,23.4c.006,2.65,1.1,4.016,3.152,4.057,2.129.043,3.271-1.371,3.288-4.165.023-3.9.006-7.8,0-11.7s.028-7.8-.011-11.7c-.025-2.424-1.186-3.774-3.144-3.812" transform="translate(41.538 50.628)" fill="#1a1311"/>
    <path id="Union_1" data-name="Union 1" d="M0,100A100,100,0,1,1,100,200,100,100,0,0,1,0,100Z" transform="translate(0 11)"/>
    <path id="Path_9" data-name="Path 9" d="M66.745,36.121c-1.977-.113-3.255,1.315-3.291,3.655-.045,3.086-.011,6.171-.013,9.255v5.691c-1.109-1.456-1.743-2.265-2.352-3.1Q56.047,44.758,51.02,37.879c-1-1.371-2.252-2.16-3.968-1.594s-2.211,1.931-2.2,3.642c.028,7.875.013,15.751.013,23.628,0,.162,0,.324.006.487.132,2.184,1.367,3.525,3.282,3.42a3.018,3.018,0,0,0,3.133-3.308c.04-4.766.013-9.533.013-14.3.172-.058.341-.115.513-.172.4.5.811.979,1.186,1.492q5.33,7.26,10.64,14.538C64.64,67.1,65.91,67.853,67.6,67.354c1.715-.507,2.327-1.845,2.324-3.57-.017-8.039,0-16.078-.015-24.114,0-2.09-.988-3.423-3.165-3.548" transform="translate(48.846 50.626)" fill="#1a1311"/>
    <path id="Path_10" data-name="Path 10" d="M41.751,60.982c-2.576-.023-5.153-.006-8.012-.006V58.047c0-6.013.021-12.028-.015-18.043-.013-2.552-1.26-3.955-3.306-3.9-1.956.053-3.127,1.42-3.135,3.835q-.037,11.826,0,23.65c.011,2.825,1.139,3.88,4.061,3.9,3.5.025,6.992.015,10.489,0,2.731-.009,4.3-1.162,4.363-3.163.066-2.09-1.543-3.32-4.444-3.346" transform="translate(29.486 50.628)" fill="#1a1311"/>
    <path id="Path_11" data-name="Path 11" d="M75.3,61.022c-2.659-.04-5.319-.008-8.065-.008V55.182c2.786,0,5.445.034,8.1-.009,2.543-.043,3.995-1.252,4.046-3.254.053-2.139-1.407-3.372-4.1-3.4-2.656-.025-5.31,0-8.073,0v-5.9c2.991,0,5.741.036,8.49-.009,2.382-.04,3.75-1.258,3.669-3.278-.087-2.188-1.42-3.2-3.5-3.222-3.9-.047-7.8-.074-11.7,0-2.429.049-3.669,1.217-3.687,3.6q-.1,12.058,0,24.12c.017,2.486,1.317,3.657,3.836,3.684,3.657.04,7.313.026,10.97.006,2.671-.013,4.016-1.058,4.093-3.114.081-2.15-1.322-3.346-4.083-3.388" transform="translate(65.374 50.59)" fill="#1a1311"/>
    <path id="Path_13" data-name="Path 13" d="M78.371,16.908c20.188.465,37.461,6.346,51.124,20.85,8.669,9.2,13.317,20.255,12.866,33-.422,12.014-5.888,21.964-13.855,30.664-10.17,11.109-22.219,19.878-34.661,28.146-3.858,2.563-7.888,4.865-11.865,7.242a12.289,12.289,0,0,1-3.343,1.6c-1.462.342-3.487.9-4.4.207-.844-.645-.772-2.823-.693-4.3.131-2.48.745-4.932.873-7.412.188-3.691-.674-4.923-4.288-5.91-3.017-.827-6.159-1.19-9.2-1.941-14.035-3.47-26.2-10.135-35.313-21.667C11.18,79.121,12.172,55.1,28.03,38,39.171,25.979,53.191,19.716,69.2,17.624c3.272-.429,6.587-.521,9.174-.716m.077,51.145.524-.174c.4.508.823,1,1.207,1.528Q85.6,76.841,91,84.293c1.027,1.419,2.316,2.192,4.04,1.68,1.743-.52,2.368-1.889,2.364-3.656-.017-8.231,0-16.462-.015-24.691,0-2.14-1.008-3.505-3.222-3.633-2.009-.116-3.313,1.346-3.347,3.743-.046,3.158-.013,6.317-.013,9.477V73.04c-1.129-1.491-1.775-2.319-2.4-3.169Q83.287,62.837,78.17,55.794c-1.017-1.4-2.29-2.213-4.038-1.632s-2.249,1.976-2.244,3.729c.031,8.063.013,16.128.013,24.193,0,.166,0,.332.008.5.134,2.236,1.391,3.61,3.338,3.5A3.079,3.079,0,0,0,78.434,82.7c.042-4.88.013-9.761.013-14.643m30.266-7.439c3.044,0,5.842.035,8.638-.012,2.424-.039,3.815-1.286,3.733-3.357-.088-2.24-1.445-3.273-3.558-3.3-3.967-.046-7.936-.075-11.9,0-2.472.048-3.733,1.246-3.752,3.687q-.1,12.349,0,24.7c.017,2.545,1.34,3.745,3.906,3.774,3.719.039,7.439.025,11.16.006,2.718-.015,4.086-1.085,4.165-3.19.083-2.2-1.345-3.426-4.155-3.467-2.706-.041-5.412-.01-8.207-.01V73.476c2.837,0,5.541.037,8.245-.01,2.587-.044,4.065-1.28,4.117-3.329.054-2.192-1.432-3.453-4.17-3.48-2.7-.025-5.4-.006-8.214-.006ZM44.731,79.446v-3c0-6.159.019-12.316-.015-18.474-.013-2.615-1.282-4.05-3.364-3.994-1.99.052-3.182,1.454-3.19,3.926q-.037,12.109,0,24.216c.012,2.891,1.159,3.971,4.132,3.992,3.558.025,7.115.017,10.673,0,2.779-.01,4.376-1.19,4.439-3.241.067-2.138-1.57-3.4-4.522-3.424-2.622-.025-5.245-.006-8.153-.006M67.05,69.859c0-3.992.029-7.986-.012-11.978-.023-2.482-1.207-3.863-3.2-3.9-2.088-.041-3.336,1.4-3.343,4.013q-.035,11.979,0,23.955c.006,2.715,1.123,4.112,3.209,4.154,2.165.044,3.328-1.4,3.343-4.264.023-3.992.006-7.986,0-11.978" transform="translate(21.077 33.059)" fill="#fff"/>
  </g>
</svg>
