<svg xmlns="http://www.w3.org/2000/svg" xmlns:xlink="http://www.w3.org/1999/xlink" width="50" height="50" viewBox="0 0 50 50">
  <defs>
    <clipPath id="clip-Line_3">
      <rect width="50" height="50"/>
    </clipPath>
  </defs>
  <g id="Line_3" data-name="Line – 3" clip-path="url(#clip-Line_3)">
    <rect width="50" height="50" fill="#fff"/>
    <g id="Group_13" data-name="Group 13">
      <path id="Path_26" data-name="Path 26" d="M22.783.083C42.841-1.505,56.675,19.8,46.661,37.414,37.134,54.169,12.629,54.1,3.207,37.288-5.633,21.518,4.75,1.512,22.783.083M12.87,31.431a15.924,15.924,0,0,0,10.342,8.388c-.09.432.075.5.195.78.554,1.287,1.992,2.6,2.635,3.9a.539.539,0,0,0,.394.207c.625.1,5.017-1.881,5.884-2.316C38.8,39.137,44.807,33.85,42.987,25.8c-.608-2.691-1.932-3.833-3.384-5.882-.531-.749-.929-1.584-1.48-2.324-4.9-6.572-15.556-7.581-22.31-3.415-6.3,3.884-8.243,11.574-2.942,17.248" transform="translate(0 0)" fill="#32c600"/>
      <path id="Path_27" data-name="Path 27" d="M57.086,69.265a32.461,32.461,0,0,0,8.255-3.549c6.413-3.833,10.642-9.292,7.981-17.111,1.453,2.049,2.736,3.174,3.344,5.864C78.486,62.516,72.476,67.8,66,71.056c-.867.435-5.259,2.413-5.884,2.316a.538.538,0,0,1-.394-.207c-.644-1.3-2.081-2.612-2.635-3.9" transform="translate(-33.679 -28.666)" fill="#43a546"/>
      <path id="Path_28" data-name="Path 28" d="M41.729,85.045a15.924,15.924,0,0,1-10.342-8.388,16.011,16.011,0,0,0,7.178,4.236c1.522.47,3.7.189,3.758,2.306.023.836-.483,1.31-.594,1.846" transform="translate(-18.517 -45.226)" fill="#43a546"/>
      <path id="Path_29" data-name="Path 29" d="M61.855,53.1V49.689a.986.986,0,0,1,1.908.044,37.038,37.038,0,0,1,.047,6.007c-.071.617-.186,1.055-.881,1.09-1.553.079-2.477-3.279-3.61-4.117v3.609c0,.533-1.756.694-1.756.2V49.2a3.6,3.6,0,0,1,.884-.209c1.23.041,2.48,3.328,3.409,4.11" transform="translate(-33.96 -28.889)" fill="#32c600"/>
      <path id="Path_30" data-name="Path 30" d="M77.259,51.7c3.691-.6,3.678,2.359,0,1.756-.266,2.259.7,1.316,2.044,1.567a.92.92,0,0,1,.168,1.718c-.531.18-3.619.162-3.871-.357-.5-1.032.145-5.476-.057-6.886.235-.862,3.874-.6,4.16-.337a1.059,1.059,0,0,1,.113,1.291c-.64.786-2.88-.508-2.557,1.249" transform="translate(-44.487 -28.856)" fill="#32c600"/>
      <path id="Path_31" data-name="Path 31" d="M37.9,55.164h3.122c.148,0,.37,1.756-.293,1.756H36.44a1.938,1.938,0,0,1-.293-.293V49.312c0-.148,1.756-.37,1.756.292Z" transform="translate(-21.326 -29)" fill="#32c600"/>
      <path id="Path_32" data-name="Path 32" d="M51.985,49.34v7.412c0,.175-1.561.175-1.561,0V49.34a2.291,2.291,0,0,1,1.561,0" transform="translate(-29.749 -29.028)" fill="#32c600"/>
    </g>
  </g>
</svg>
